<?xml version="1.0" encoding="UTF-8" standalone="no"?><!DOCTYPE svg PUBLIC "-//W3C//DTD SVG 1.1//EN" "http://www.w3.org/Graphics/SVG/1.1/DTD/svg11.dtd"><svg width="100%" height="100%" viewBox="0 0 559 559" version="1.1" xmlns="http://www.w3.org/2000/svg" xmlns:xlink="http://www.w3.org/1999/xlink" xml:space="preserve" xmlns:serif="http://www.serif.com/" style="fill-rule:evenodd;clip-rule:evenodd;stroke-linejoin:round;stroke-miterlimit:2;"><g><path d="M555.554,138.888c0,-76.655 -62.233,-138.888 -138.887,-138.888l-277.78,0c-76.654,0 -138.887,62.233 -138.887,138.888l0,277.779c0,76.654 62.233,138.887 138.888,138.887l277.779,0c76.654,0 138.887,-62.233 138.887,-138.887l0,-277.78Z" style="fill:#820ad1;"/><path d="M144.696,195.125c13.167,-13.579 30.583,-21.512 51.167,-21.512c40,-0 66.5,28.629 71.583,71.575c1.666,13.991 1.666,33.62 1.583,56.362l0,92.438l-55,-0l0,-63.071c0,-0 -0.083,-53.988 -0.417,-64.134c-1.5,-43.929 -28,-71.575 -68.916,-71.658c-12.417,12.925 -19,28.55 -20,52.517c-0.167,3.354 -0.084,15.216 -0.084,30.758c0,8.1 0.084,17.179 0.084,26.667l-0,89.004l-55,-0l-0,-97.1c-0,-3.354 -0.084,-6.708 -0.084,-10.063c-0.083,-6.791 -0.25,-13.579 0.084,-20.366c0.583,-11.292 2.583,-22.417 8,-32.725c12.25,-23.559 37.416,-38.775 64.166,-38.775c0.917,-0 1.834,0.083 2.834,0.083Z" style="fill:#fff;fill-rule:nonzero;"/><path d="M485.863,306.375c0.333,-6.788 0.25,-13.575 0.083,-20.367c-0.084,-3.354 -0.084,-6.708 -0.084,-10.062l0,-97.1l-55,-0l0,89.004c0,9.488 0,18.567 0.084,26.667c0.083,15.625 0.083,27.483 -0.084,30.758c-1,23.967 -7.583,39.592 -19.916,52.433c-40.917,0 -67.5,-27.645 -68.917,-71.575c-0.333,-10.062 -0.5,-35.175 -0.5,-64.133l0,-63.237l-55,0.083l0,92.437c0,22.742 0,42.455 1.583,56.363c5.084,42.946 31.584,71.579 71.584,71.579c20.5,0 38,-7.937 51.166,-21.517c0.917,0 1.834,0.084 2.834,0.084c26.833,-0 51.916,-15.217 64.166,-38.775c5.417,-10.309 7.417,-21.35 8,-32.642Z" style="fill:#fff;fill-rule:nonzero;"/></g></svg>